<?xml version="1.0" encoding="UTF-8" standalone="no"?>
<svg
   xmlns:dc="http://purl.org/dc/elements/1.1/"
   xmlns:cc="http://creativecommons.org/ns#"
   xmlns:rdf="http://www.w3.org/1999/02/22-rdf-syntax-ns#"
   xmlns:svg="http://www.w3.org/2000/svg"
   xmlns="http://www.w3.org/2000/svg"
   xmlns:xlink="http://www.w3.org/1999/xlink"
   xmlns:sodipodi="http://sodipodi.sourceforge.net/DTD/sodipodi-0.dtd"
   xmlns:inkscape="http://www.inkscape.org/namespaces/inkscape"
   version="1.1"
   id="Layer_1"
   x="0px"
   y="0px"
   width="835"
   height="296.569"
   viewBox="0 0 835 296.569"
   enable-background="new 0 0 1031 493"
   xml:space="preserve"
   sodipodi:docname="UNEP-logo.svg"
   inkscape:version="1.0.2-2 (e86c870879, 2021-01-15)"><metadata
   id="metadata139"><rdf:RDF><cc:Work
       rdf:about=""><dc:format>image/svg+xml</dc:format><dc:type
         rdf:resource="http://purl.org/dc/dcmitype/StillImage" /><dc:title></dc:title></cc:Work></rdf:RDF></metadata><defs
   id="defs137" /><sodipodi:namedview
   pagecolor="#ffffff"
   bordercolor="#666666"
   borderopacity="1"
   objecttolerance="10"
   gridtolerance="10"
   guidetolerance="10"
   inkscape:pageopacity="0"
   inkscape:pageshadow="2"
   inkscape:window-width="1920"
   inkscape:window-height="1137"
   id="namedview135"
   showgrid="false"
   inkscape:zoom="1.0533463"
   inkscape:cx="515.5"
   inkscape:cy="246.5"
   inkscape:window-x="-8"
   inkscape:window-y="434"
   inkscape:window-maximized="1"
   inkscape:current-layer="Layer_1" />

<g
   id="g1032"
   transform="matrix(0.99939916,0,0,0.99939916,-97.432424,-96.443018)"
   style="stroke-width:1.0006"><g
     id="g24"
     style="stroke-width:1.0006">
	<defs
   id="defs3">
		<rect
   id="SVGID_1_"
   x="97.489998"
   y="96.500999"
   width="292.383"
   height="296.74701" />
	</defs>
	<clipPath
   id="SVGID_2_">
		<use
   xlink:href="#SVGID_1_"
   overflow="visible"
   id="use5"
   x="0"
   y="0"
   width="100%"
   height="100%" />
	</clipPath>
	<path
   clip-path="url(#SVGID_2_)"
   fill="#26bde2"
   d="m 369.165,173.952 c -3.917,-6.251 -7.969,-12.188 -12.59,-17.856 -1.825,-2.238 -3.727,-4.417 -5.726,-6.531 -2.225,-2.312 -4.852,-5.841 -8.457,-4.012 -1.251,0.615 -2.501,1.251 -3.747,1.903 -15.874,8.309 -31.205,19.574 -43.303,32.122 -9.905,10.271 -17.453,25.556 -28.148,34.862 -14.285,12.697 -33.438,12.644 -47.661,0.034 -7.56,-6.664 -13.92,-18.057 -20.304,-25.963 -9.9,-12.494 -24.066,-24.923 -38.113,-33.868 -5.152,-3.3 -10.578,-6.358 -16.094,-9.09 -1.76,-0.875 -3.978,-0.5 -5.38,0.888 -3.155,3.075 -6.072,6.299 -8.82,9.656 -4.578,5.593 -8.684,11.563 -12.626,17.856 -1.78,2.711 -0.351,6.601 2.73,7.514 18.866,6.055 33.729,18.705 46.175,34.219 5.755,7.215 11.504,14.364 17.978,20.989 25.545,27.982 66.044,36.867 99.266,14.6 l 0.002,-0.004 c 10.61,-7.06 19.424,-16.329 27.524,-26.046 7.437,-9.084 14.569,-18.6 23.64,-26.115 7.076,-6.033 14.567,-10.929 22.924,-14.596 2.623,-1.155 5.286,-2.185 7.999,-3.048 2.087,-0.66 3.451,-2.593 3.51,-4.719 0.016,-0.983 -0.247,-1.951 -0.779,-2.795"
   id="path8"
   style="stroke-width:1.0012" />
	<path
   clip-path="url(#SVGID_2_)"
   fill="#dda63a"
   d="m 354.578,324.398 c -2.11,-0.354 -4.286,-0.442 -6.411,-0.385 -16.386,0.371 -30.571,12.243 -45.427,18.291 -18.468,7.777 -37.853,11.021 -57.993,10.908 -20.877,0.312 -41.161,-2.805 -60.32,-10.908 -10.141,-4.27 -19.234,-10.403 -29.385,-14.647 -7.922,-3.312 -16.965,-5.082 -25.205,-2.597 -2.052,0.619 -4.362,1.419 -5.576,3.262 -0.839,1.218 -0.7,2.578 0.204,3.906 17.737,25.16 43.785,44.403 74.324,54.053 59.417,20.044 130.986,-4.726 164.065,-54.273 2.94,-4.718 -4.863,-7.031 -8.276,-7.61"
   id="path10"
   style="stroke-width:1.0012" />
	<path
   clip-path="url(#SVGID_2_)"
   fill="#bf8b2e"
   d="m 362.854,332.008 c 2.941,-4.718 -4.862,-7.031 -8.276,-7.609 -2.11,-0.354 -4.286,-0.442 -6.41,-0.385 -25.413,4.953 -37.27,29.842 -56.176,44.552 -20.711,15.861 -43.561,22.134 -69.543,20.34 -7.458,-0.38 -16.145,-0.671 -23.66,-2.624 59.418,20.043 130.985,-4.726 164.065,-54.274"
   id="path12"
   style="stroke-width:1.0012" />
	<path
   clip-path="url(#SVGID_2_)"
   fill="#56c02b"
   d="m 388.416,226.656 c -0.354,-2.528 -2.616,-4.081 -5.114,-4.129 -1.375,-0.027 -4.542,0.156 -7.599,0.544 -36.093,4.564 -55.543,22.397 -71.591,37.085 -16.423,15.032 -29.398,26.907 -60.898,26.907 -31.029,0 -43.932,-11.86 -60.266,-26.877 -16.687,-15.341 -39.815,-34.04 -78.884,-37.656 -2.488,-0.229 -4.764,1.602 -5.116,4.13 -0.947,6.759 -1.457,13.658 -1.457,20.683 0,4.404 0.211,8.758 0.593,13.062 0.205,2.302 2.035,4.064 4.285,4.317 23.948,2.694 38.562,13.528 53.005,26.805 14.776,13.586 32.484,29.854 63.663,35.57 0.077,0.014 0.151,0.031 0.229,0.045 14.041,2.543 28.605,2.774 42.745,0.891 11.324,-1.509 22.42,-4.621 32.731,-9.565 8.483,-4.066 16.315,-9.322 23.603,-15.249 4.571,-3.718 8.932,-7.684 13.277,-11.662 14.528,-13.299 29.217,-24.15 53.345,-26.839 2.265,-0.253 4.11,-2.027 4.316,-4.348 0.379,-4.292 0.591,-8.632 0.591,-13.026 0,-7.026 -0.514,-13.93 -1.458,-20.688"
   id="path14"
   style="stroke-width:1.0012" />
	<path
   clip-path="url(#SVGID_2_)"
   fill="#0a97d9"
   d="m 284.344,251.273 c 0.001,-0.002 0.001,-0.002 0.002,-0.003 10.611,-7.06 19.426,-16.328 27.524,-26.045 7.438,-9.085 14.571,-18.601 23.64,-26.116 7.078,-6.034 14.567,-10.929 22.924,-14.595 2.623,-1.157 5.287,-2.186 8,-3.048 2.087,-0.661 3.451,-2.593 3.509,-4.719 0.017,-0.984 -0.245,-1.952 -0.778,-2.796 -3.918,-6.251 -7.969,-12.187 -12.591,-17.857 -1.825,-2.238 -3.725,-4.416 -5.725,-6.53 -2.225,-2.312 -4.853,-5.84 -8.458,-4.012 -1.251,0.615 -2.5,1.252 -3.746,1.903 -12.256,8.048 -29.011,24.402 -42.594,57.305 -39.455,95.569 -110.972,31.913 -110.972,31.913 25.545,27.984 66.045,36.868 99.265,14.6"
   id="path16"
   style="stroke-width:1.0012" />
	<path
   clip-path="url(#SVGID_2_)"
   fill="#e5243b"
   d="m 284.646,102.408 c -0.525,-3.093 -1.896,-5.29 -4.573,-5.795 -0.115,-0.022 -0.25,-0.038 -0.369,-0.05 -0.67,-0.062 -1.387,-0.101 -2.192,-0.001 -7.207,0.778 -13.708,6.845 -18.386,11.962 -5.346,5.966 -8.83,11.633 -13.031,18.734 -4.041,-11.703 -12.965,-27.56 -27.12,-24.497 -13.924,2.652 -22.33,17.682 -18.476,30.943 2.841,10.867 8.278,20.827 14.546,30.074 4.815,7.105 9.585,14.28 15.172,20.812 1.452,1.698 3.038,3.531 4.791,5.173 2.507,2.349 5.359,4.302 8.676,4.887 6.816,1.201 11.456,-4.687 14.74,-9.805 11.595,-18.139 18.816,-38.757 23.833,-59.594 0.698,-3.107 1.479,-6.453 2.034,-9.846 0.683,-4.235 1,-8.6 0.355,-12.997"
   id="path18"
   style="stroke-width:1.0012" />
	<path
   clip-path="url(#SVGID_2_)"
   fill="#c5192d"
   d="m 284.646,102.408 c -0.525,-3.093 -1.896,-5.29 -4.573,-5.795 -0.115,-0.022 -0.25,-0.034 -0.369,-0.05 -0.274,-0.024 -0.507,0 -0.789,0.046 0,0 -12.286,1.932 -15.615,23.414 -3.259,21.029 -2.844,79.759 -26.371,70.914 -1.03,-0.463 -1.727,-1.013 -1.921,-1.174 2.507,2.349 5.359,4.302 8.676,4.887 6.816,1.201 11.456,-4.687 14.74,-9.805 11.595,-18.139 18.816,-38.757 23.833,-59.594 0.698,-3.107 1.479,-6.453 2.034,-9.846 0.683,-4.235 1,-8.6 0.355,-12.997"
   id="path20"
   style="stroke-width:1.0012" />
	<path
   clip-path="url(#SVGID_2_)"
   fill="#3f7e45"
   d="m 388.416,226.656 c -0.354,-2.528 -2.616,-4.081 -5.114,-4.129 -0.386,0.003 -0.742,-0.004 -1.086,0.006 -0.553,0.019 -1.059,0.044 -1.702,0.082 -66.21,4.373 -92.691,138.708 -192.229,93.87 13.91,7.414 31.454,12.729 55.205,12.729 46.989,0 69.801,-20.879 88.132,-37.656 14.528,-13.299 29.217,-24.15 53.345,-26.839 2.265,-0.253 4.11,-2.027 4.316,-4.348 0.379,-4.292 0.591,-8.632 0.591,-13.026 0,-7.027 -0.514,-13.931 -1.458,-20.689"
   id="path22"
   style="stroke-width:1.0012" />
</g><g
     id="g132"
     style="stroke-width:1.0006">
	<defs
   id="defs27">
		<rect
   id="SVGID_3_"
   width="1031"
   height="493"
   x="0"
   y="0" />
	</defs>
	<clipPath
   id="SVGID_4_">
		<use
   xlink:href="#SVGID_3_"
   overflow="visible"
   id="use29"
   x="0"
   y="0"
   width="100%"
   height="100%" />
	</clipPath>
	<path
   clip-path="url(#SVGID_4_)"
   fill="#1d1d1b"
   d="m 833.396,160.314 c 5.506,0 9.107,-3.388 9.107,-8.556 v -12.283 c 0,-5.168 -3.602,-8.557 -9.107,-8.557 -5.549,0 -9.191,3.389 -9.191,8.557 v 12.283 c 0,5.168 3.643,8.556 9.191,8.556 m -4.15,-20.713 c 0,-2.457 1.609,-4.066 4.15,-4.066 2.456,0 4.108,1.609 4.108,4.066 v 12.03 c 0,2.457 -1.652,4.067 -4.108,4.067 -2.541,0 -4.15,-1.61 -4.15,-4.067 z"
   id="path32"
   style="stroke-width:1.0012" />
	<polygon
   clip-path="url(#SVGID_4_)"
   fill="#1d1d1b"
   points="864.149,159.806 864.149,131.426 859.108,131.426 859.108,148.496 859.363,150.444 858.981,150.444 851.993,131.426 846.105,131.426 846.105,159.806 851.104,159.806 851.104,142.736 850.892,140.787 851.271,140.787 858.219,159.806 "
   id="polygon34"
   style="stroke-width:1.0012" />
	<path
   clip-path="url(#SVGID_4_)"
   fill="#1d1d1b"
   d="m 644.167,249.78 c -13.342,0 -22.101,8.147 -22.101,20.571 v 29.534 c 0,12.424 8.759,20.572 22.101,20.572 13.239,0 21.895,-8.148 21.895,-20.572 v -29.534 c 0,-12.423 -8.656,-20.571 -21.895,-20.571 m 9.878,49.8 c 0,5.907 -3.972,9.776 -9.878,9.776 -6.11,0 -9.981,-3.869 -9.981,-9.776 v -28.923 c 0,-5.906 3.871,-9.777 9.981,-9.777 5.906,0 9.878,3.871 9.878,9.777 z"
   id="path36"
   style="stroke-width:1.0012" />
	<path
   clip-path="url(#SVGID_4_)"
   fill="#1d1d1b"
   d="m 717.29,272.695 c 0,-13.749 -7.842,-21.692 -21.488,-21.692 h -21.081 v 68.232 h 12.018 v -24.748 h 7.943 l 9.572,24.748 h 14.157 l -12.12,-26.783 c 7.13,-3.158 10.999,-9.879 10.999,-19.757 m -22.71,11.1 h -7.842 v -21.691 h 7.842 c 6.721,0 10.591,3.971 10.591,10.795 0,6.925 -3.87,10.896 -10.591,10.896"
   id="path38"
   style="stroke-width:1.0012" />
	<rect
   x="816.38501"
   y="251.00301"
   clip-path="url(#SVGID_4_)"
   fill="#1d1d1b"
   width="12.018"
   height="68.233002"
   id="rect40"
   style="stroke-width:1.0012" />
	<path
   clip-path="url(#SVGID_4_)"
   fill="#1d1d1b"
   d="m 859.056,249.78 c -13.342,0 -22.1,8.147 -22.1,20.571 v 29.534 c 0,12.424 8.758,20.572 22.1,20.572 13.239,0 21.896,-8.148 21.896,-20.572 v -29.534 c -10e-4,-12.423 -8.657,-20.571 -21.896,-20.571 m 9.878,49.8 c 0,5.907 -3.972,9.776 -9.878,9.776 -6.11,0 -9.979,-3.869 -9.979,-9.776 v -28.923 c 0,-5.906 3.869,-9.777 9.979,-9.777 5.906,0 9.878,3.871 9.878,9.777 z"
   id="path42"
   style="stroke-width:1.0012" />
	<polygon
   clip-path="url(#SVGID_4_)"
   fill="#1d1d1b"
   points="903.765,251.003 889.61,251.003 889.61,319.235 901.627,319.235 901.627,278.193 901.119,273.51 902.034,273.51 918.737,319.235 932.993,319.235 932.993,251.003 920.874,251.003 920.874,292.045 921.486,296.729 920.569,296.729 "
   id="polygon44"
   style="stroke-width:1.0012" />
	<path
   clip-path="url(#SVGID_4_)"
   fill="#1d1d1b"
   d="m 577.969,262.103 h 14.46 v 57.134 h 12.02 v -57.134 h 9.841 c 2.338,-0.283 4.193,-2.112 4.518,-4.437 v -6.663 H 577.97 v 11.1 z"
   id="path46"
   style="stroke-width:1.0012" />
	<path
   clip-path="url(#SVGID_4_)"
   fill="#1d1d1b"
   d="m 768.621,262.103 h 14.461 v 57.134 h 12.019 v -57.134 h 9.841 c 2.338,-0.283 4.192,-2.112 4.519,-4.437 v -6.663 h -40.839 v 11.1 z"
   id="path48"
   style="stroke-width:1.0012" />
	<path
   clip-path="url(#SVGID_4_)"
   fill="#1d1d1b"
   d="M 716.697,151.292 V 139.94 c 0,-5.168 -3.602,-8.514 -8.98,-8.514 h -8.641 v 28.38 h 8.641 c 5.379,10e-4 8.98,-3.346 8.98,-8.514 m -12.623,3.897 v -19.146 h 3.473 c 2.584,0 4.151,1.567 4.151,4.066 v 11.014 c 0,2.499 -1.567,4.066 -4.151,4.066 z"
   id="path50"
   style="stroke-width:1.0012" />
	<path
   clip-path="url(#SVGID_4_)"
   fill="#1d1d1b"
   d="M 797.348,151.292 V 139.94 c 0,-5.168 -3.601,-8.514 -8.979,-8.514 h -8.642 v 28.38 h 8.642 c 5.378,10e-4 8.979,-3.346 8.979,-8.514 m -12.623,3.897 v -19.146 h 3.475 c 2.583,0 4.15,1.567 4.15,4.066 v 11.014 c 0,2.499 -1.567,4.066 -4.15,4.066 z"
   id="path52"
   style="stroke-width:1.0012" />
	<path
   clip-path="url(#SVGID_4_)"
   fill="#1d1d1b"
   d="m 734.91,155.189 h -9.656 v -7.455 h 8.302 v -4.49 h -8.302 v -7.201 l 7.491,-0.003 c 1.196,0 2.165,-0.969 2.165,-2.165 v -2.449 h -14.654 v 28.38 h 14.654 z"
   id="path54"
   style="stroke-width:1.0012" />
	<path
   clip-path="url(#SVGID_4_)"
   fill="#1d1d1b"
   d="m 815.562,155.189 h -9.658 v -7.455 h 8.302 v -4.49 h -8.302 v -7.201 l 7.502,-0.003 c 1.134,0 2.064,-0.873 2.156,-1.984 v -2.63 h -14.656 v 28.38 h 14.656 z"
   id="path56"
   style="stroke-width:1.0012" />
	<path
   clip-path="url(#SVGID_4_)"
   fill="#1d1d1b"
   d="m 746.771,160.315 c 5.379,0 8.938,-3.304 8.938,-8.345 v -2.329 h -2.928 c -1.151,0.049 -2.07,0.996 -2.07,2.16 v 0.042 c 0,2.372 -1.609,3.855 -3.939,3.855 -2.415,0 -3.981,-1.483 -3.981,-3.855 V 139.39 c 0,-2.372 1.566,-3.854 3.981,-3.854 2.33,0 3.939,1.482 3.939,3.854 v 0.036 c 0,1.196 0.97,2.165 2.164,2.165 l 2.834,0.001 v -2.329 c 0,-5.041 -3.559,-8.344 -8.938,-8.344 -5.422,0 -9.022,3.303 -9.022,8.344 v 12.707 c 0,5.041 3.601,8.345 9.022,8.345"
   id="path58"
   style="stroke-width:1.0012" />
	<path
   clip-path="url(#SVGID_4_)"
   fill="#1d1d1b"
   d="m 762.556,157.543 0.778,-3.921 h 7.074 l 1.177,6.184 h 2.36 3.239 l -6.692,-28.38 h -7.03 l -6.693,28.38 h 3.027 c 1.15,-0.056 2.468,-0.631 2.76,-2.263 m 4.167,-21.118 h 0.296 l 2.499,12.707 h -5.294 z"
   id="path60"
   style="stroke-width:1.0012" />
	<path
   clip-path="url(#SVGID_4_)"
   fill="#1d1d1b"
   d="m 737.149,251.002 -16.091,68.233 h 7.277 c 2.77,-0.135 5.934,-1.517 6.636,-5.441 l 1.873,-9.427 h 17.007 l 1.88,9.467 c 0.718,3.892 3.868,5.268 6.626,5.401 h 7.789 l -16.092,-68.233 z m 1.833,42.57 6.008,-30.552 h 0.714 l 6.007,30.552 z"
   id="path62"
   style="stroke-width:1.0012" />
	<path
   clip-path="url(#SVGID_4_)"
   fill="#1d1d1b"
   d="m 521.637,262.096 c 2.875,0 5.206,-2.331 5.206,-5.205 v -5.888 h -35.237 v 68.232 h 35.237 v -11.1 h -23.219 v -17.924 h 19.959 v -10.796 h -19.959 v -17.312 z"
   id="path64"
   style="stroke-width:1.0012" />
	<path
   clip-path="url(#SVGID_4_)"
   fill="#1d1d1b"
   d="m 574.35,300.12 c 0,-24.646 -28.922,-18.129 -28.922,-31.979 0,-4.684 3.157,-7.434 7.943,-7.434 4.689,0 7.85,2.52 8.213,6.457 v -0.057 c 0,1.758 1.382,3.181 3.116,3.274 h 8.633 v -2.647 c 0,-10.795 -7.843,-18.128 -20.063,-18.128 -11.915,0 -19.858,7.027 -19.858,19.35 0,23.831 28.923,17.924 28.923,31.979 0,5.092 -3.362,8.249 -8.555,8.249 -5.328,0 -8.732,-3.062 -8.941,-7.788 v 0.073 c 0,-1.791 -1.432,-3.239 -3.211,-3.284 h -8.726 v 2.75 c 0,11.711 8.352,19.349 20.979,19.349 12.322,-10e-4 20.469,-7.333 20.469,-20.164"
   id="path66"
   style="stroke-width:1.0012" />
	<path
   clip-path="url(#SVGID_4_)"
   fill="#1d1d1b"
   d="m 453.516,294.487 h 7.942 l 9.575,24.748 h 14.155 l -12.119,-26.783 c 7.129,-3.158 10.999,-9.879 10.999,-19.757 0,-13.749 -7.842,-21.692 -21.488,-21.692 h -21.082 v 68.232 h 12.018 z m 0,-32.383 h 7.842 c 6.721,0 10.591,3.971 10.591,10.795 0,6.926 -3.87,10.896 -10.591,10.896 h -7.842 z"
   id="path68"
   style="stroke-width:1.0012" />
	<path
   clip-path="url(#SVGID_4_)"
   fill="#1d1d1b"
   d="m 555.358,169.947 c -13.342,0 -22.099,8.147 -22.099,20.571 v 29.534 c 0,12.424 8.757,20.571 22.099,20.571 13.239,0 21.896,-8.147 21.896,-20.571 v -29.534 c 0,-12.424 -8.656,-20.571 -21.896,-20.571 m 9.878,49.8 c 0,5.906 -3.972,9.776 -9.878,9.776 -6.11,0 -9.979,-3.87 -9.979,-9.776 v -28.924 c 0,-5.907 3.869,-9.777 9.979,-9.777 5.906,0 9.878,3.87 9.878,9.777 z"
   id="path70"
   style="stroke-width:1.0012" />
	<path
   clip-path="url(#SVGID_4_)"
   fill="#1d1d1b"
   d="m 663.826,171.16 h -3.815 -1.392 l -0.811,2.349 -8.854,25.257 h -0.714 l -8.216,-23.192 c 0.144,0.336 0.284,0.689 0.418,1.077 l -1.896,-5.491 h -1.391 -3.815 c 0.191,0 0.382,0.003 0.57,0.008 h -9.298 l 17.722,40.736 V 239.4 h 12.118 v -27.496 l 17.618,-40.736 h -8.815 c 0.189,-0.005 0.379,-0.008 0.571,-0.008"
   id="path72"
   style="stroke-width:1.0012" />
	<polygon
   clip-path="url(#SVGID_4_)"
   fill="#1d1d1b"
   points="851.725,190.008 852.743,190.008 852.131,194.693 852.131,239.401 864.149,239.401 864.149,171.168 847.854,171.168 837.264,208.135 836.55,208.135 825.857,171.168 809.156,171.168 809.156,239.401 821.173,239.401 821.173,194.693 820.663,190.008 821.579,190.008 832.171,224.735 841.133,224.735 "
   id="polygon74"
   style="stroke-width:1.0012" />
	<path
   clip-path="url(#SVGID_4_)"
   fill="#1d1d1b"
   d="m 476.735,228.301 h -23.219 v -17.924 h 19.96 v -10.795 h -19.96 v -17.313 l 18.013,-0.008 c 2.875,0 5.206,-2.331 5.206,-5.205 v -5.887 h -35.236 v 68.232 h 35.236 z"
   id="path76"
   style="stroke-width:1.0012" />
	<path
   clip-path="url(#SVGID_4_)"
   fill="#1d1d1b"
   d="m 505.303,240.624 c 12.934,0 21.488,-7.944 21.488,-20.063 v -5.601 h -7.039 c -2.769,0.12 -4.977,2.395 -4.977,5.193 v 0.103 c 0,5.703 -3.871,9.267 -9.472,9.267 -5.806,0 -9.573,-3.564 -9.573,-9.267 v -29.941 c 0,-5.703 3.767,-9.269 9.573,-9.269 5.601,0 9.472,3.566 9.472,9.269 v 0.086 c 0,2.875 2.33,5.206 5.205,5.206 l 6.811,0.003 v -5.601 c 0,-12.119 -8.554,-20.063 -21.488,-20.063 -13.036,0 -21.693,7.944 -21.693,20.063 v 30.552 c 0,12.119 8.657,20.063 21.693,20.063"
   id="path78"
   style="stroke-width:1.0012" />
	<path
   clip-path="url(#SVGID_4_)"
   fill="#1d1d1b"
   d="m 595.588,188.481 c 0,-4.686 3.156,-7.436 7.943,-7.436 4.689,0 7.85,2.52 8.213,6.457 v -0.056 c 0,1.758 1.381,3.181 3.114,3.275 h 8.633 v -2.648 c 0,-10.795 -7.842,-18.128 -20.062,-18.128 -11.916,0 -19.858,7.028 -19.858,19.35 0,23.83 28.922,17.924 28.922,31.978 0,5.092 -3.362,8.249 -8.554,8.249 -5.328,0 -8.732,-3.062 -8.942,-7.788 v 0.074 c 0,-1.791 -1.431,-3.24 -3.21,-3.285 h -8.726 v 2.75 c 0,11.711 8.351,19.35 20.979,19.35 12.322,0 20.47,-7.333 20.47,-20.165 0,-24.645 -28.922,-18.127 -28.922,-31.977"
   id="path80"
   style="stroke-width:1.0012" />
	<path
   clip-path="url(#SVGID_4_)"
   fill="#1d1d1b"
   d="m 694.002,240.624 c 12.323,0 20.471,-7.333 20.471,-20.165 0,-24.645 -28.923,-18.128 -28.923,-31.977 0,-4.686 3.157,-7.436 7.944,-7.436 4.689,0 7.849,2.52 8.212,6.457 v -0.056 c 0,1.758 1.381,3.181 3.116,3.275 h 8.633 v -2.648 c 0,-10.795 -7.842,-18.128 -20.062,-18.128 -11.915,0 -19.859,7.028 -19.859,19.35 0,23.83 28.923,17.924 28.923,31.978 0,5.092 -3.361,8.249 -8.555,8.249 -5.326,0 -8.732,-3.062 -8.941,-7.788 v 0.074 c 0,-1.791 -1.432,-3.24 -3.211,-3.285 h -8.726 v 2.75 c -10e-4,11.71 8.351,19.35 20.978,19.35"
   id="path82"
   style="stroke-width:1.0012" />
	<path
   clip-path="url(#SVGID_4_)"
   fill="#1d1d1b"
   d="m 731.754,239.401 h 12.019 v -57.133 h 9.842 c 2.337,-0.283 4.191,-2.113 4.517,-4.436 v -6.664 h -40.837 v 11.1 h 14.46 v 57.133 z"
   id="path84"
   style="stroke-width:1.0012" />
	<path
   clip-path="url(#SVGID_4_)"
   fill="#1d1d1b"
   d="m 795.211,182.214 c 2.728,0 4.962,-2.1 5.184,-4.771 v -6.321 h -35.236 v 68.232 h 35.236 v -11.1 h -23.22 V 210.33 h 19.96 v -10.795 h -19.96 v -17.312 z"
   id="path86"
   style="stroke-width:1.0012" />
	<path
   clip-path="url(#SVGID_4_)"
   fill="#1d1d1b"
   d="m 450.291,160.274 c 5.28,0 8.744,-3.21 8.744,-8.11 v -20.699 h -4.985 v 20.572 c 0,2.238 -1.52,3.633 -3.759,3.633 -2.323,0 -3.802,-1.436 -3.802,-3.633 v -20.572 h -4.985 v 20.699 c -0.001,4.9 3.506,8.11 8.787,8.11"
   id="path88"
   style="stroke-width:1.0012" />
	<polygon
   clip-path="url(#SVGID_4_)"
   fill="#1d1d1b"
   points="481.083,159.768 481.083,131.466 476.057,131.466 476.057,148.489 476.31,150.432 475.93,150.432 468.96,131.466 463.088,131.466 463.088,159.768 468.073,159.768 468.073,142.744 467.862,140.801 468.242,140.801 475.169,159.768 "
   id="polygon90"
   style="stroke-width:1.0012" />
	<rect
   x="485.01099"
   y="131.466"
   clip-path="url(#SVGID_4_)"
   fill="#1d1d1b"
   width="4.9850001"
   height="28.302"
   id="rect92"
   style="stroke-width:1.0012" />
	<polygon
   clip-path="url(#SVGID_4_)"
   fill="#1d1d1b"
   points="503.851,136.07 509.807,136.07 509.807,131.466 492.867,131.466 492.867,136.07 498.866,136.07 498.866,159.768 503.851,159.768 "
   id="polygon94"
   style="stroke-width:1.0012" />
	<path
   clip-path="url(#SVGID_4_)"
   fill="#1d1d1b"
   d="m 527.294,155.164 h -9.632 v -7.435 h 8.279 v -4.478 h -8.279 v -7.181 h 7.472 c 1.192,0 2.16,-0.967 2.16,-2.16 v -2.444 h -14.616 v 28.302 h 14.616 z"
   id="path96"
   style="stroke-width:1.0012" />
	<path
   clip-path="url(#SVGID_4_)"
   fill="#1d1d1b"
   d="m 548.583,151.278 v -11.322 c 0,-5.153 -3.592,-8.49 -8.955,-8.49 h -8.618 v 28.302 h 8.618 c 5.363,0 8.955,-3.337 8.955,-8.49 m -12.589,3.886 V 136.07 h 3.464 c 2.576,0 4.141,1.563 4.141,4.055 v 10.983 c 0,2.493 -1.564,4.056 -4.141,4.056 z"
   id="path98"
   style="stroke-width:1.0012" />
	<polygon
   clip-path="url(#SVGID_4_)"
   fill="#1d1d1b"
   points="559.563,131.466 559.563,159.769 564.549,159.769 564.549,142.744 564.337,140.801 564.717,140.801 571.645,159.769 577.559,159.769 577.559,131.466 572.531,131.466 572.531,148.489 572.785,150.432 572.405,150.432 565.435,131.466 "
   id="polygon100"
   style="stroke-width:1.0012" />
	<polygon
   clip-path="url(#SVGID_4_)"
   fill="#1d1d1b"
   points="610.589,136.07 616.545,136.07 616.545,131.466 599.605,131.466 599.605,136.07 605.605,136.07 605.605,159.768 610.589,159.768 "
   id="polygon102"
   style="stroke-width:1.0012" />
	<rect
   x="619.41699"
   y="131.466"
   clip-path="url(#SVGID_4_)"
   fill="#1d1d1b"
   width="4.9850001"
   height="28.302"
   id="rect104"
   style="stroke-width:1.0012" />
	<path
   clip-path="url(#SVGID_4_)"
   fill="#1d1d1b"
   d="m 637.116,160.274 c 5.491,0 9.082,-3.379 9.082,-8.532 v -12.251 c 0,-5.153 -3.591,-8.533 -9.082,-8.533 -5.534,0 -9.167,3.38 -9.167,8.533 v 12.251 c 0,5.153 3.633,8.532 9.167,8.532 m -4.139,-20.656 c 0,-2.45 1.604,-4.055 4.14,-4.055 2.45,0 4.097,1.605 4.097,4.055 v 11.997 c 0,2.45 -1.646,4.055 -4.097,4.055 -2.535,0 -4.14,-1.605 -4.14,-4.055 z"
   id="path106"
   style="stroke-width:1.0012" />
	<polygon
   clip-path="url(#SVGID_4_)"
   fill="#1d1d1b"
   points="667.782,159.768 667.782,131.466 662.756,131.466 662.756,148.489 663.009,150.432 662.629,150.432 655.659,131.466 649.787,131.466 649.787,159.768 654.771,159.768 654.771,142.744 654.561,140.801 654.941,140.801 661.868,159.768 "
   id="polygon108"
   style="stroke-width:1.0012" />
	<path
   clip-path="url(#SVGID_4_)"
   fill="#1d1d1b"
   d="m 585.902,157.523 0.779,-3.923 h 7.055 l 0.778,3.923 c 0.259,1.305 1.404,2.245 2.735,2.245 h 3.245 l -6.674,-28.302 h -7.014 l -6.674,28.302 h 3.034 c 1.333,0 2.478,-0.94 2.736,-2.245 m 4.159,-21.073 h 0.297 l 2.491,12.672 h -5.279 z"
   id="path110"
   style="stroke-width:1.0012" />
	<path
   clip-path="url(#SVGID_4_)"
   fill="#1d1d1b"
   d="m 679.481,160.258 c 5.105,0 8.481,-3.038 8.481,-8.354 0,-10.211 -11.983,-7.511 -11.983,-13.249 0,-1.941 1.309,-3.08 3.292,-3.08 1.942,0 3.251,1.044 3.402,2.675 v -0.023 c 0,0.728 0.572,1.317 1.291,1.356 h 3.577 v -1.096 c 0,-4.473 -3.249,-7.511 -8.313,-7.511 -4.936,0 -8.227,2.911 -8.227,8.017 0,9.872 11.981,7.426 11.981,13.248 0,2.11 -1.393,3.418 -3.544,3.418 -2.207,0 -3.617,-1.269 -3.705,-3.227 v 0.031 c 0,-0.742 -0.592,-1.343 -1.328,-1.361 h -3.615 v 1.139 c 0.001,4.852 3.461,8.017 8.691,8.017"
   id="path112"
   style="stroke-width:1.0012" />
	<path
   clip-path="url(#SVGID_4_)"
   fill="#1d1d1b"
   d="m 456.141,349.389 c 2.294,-3.222 3.709,-6.492 3.709,-9.713 0,-5.32 -3.66,-8.688 -9.126,-8.688 -5.564,0 -9.225,3.367 -9.225,8.395 v 2.685 h 3.368 c 1.32,0 2.391,-1.07 2.391,-2.392 0,-2.001 1.318,-3.367 3.416,-3.367 2.05,0 3.369,1.269 3.369,3.611 0,1.903 -0.928,4.051 -3.515,7.662 l -8.98,12.495 v 4.197 h 18.205 v -5.173 h -10.445 v -0.293 z"
   id="path114"
   style="stroke-width:1.0012" />
	<path
   clip-path="url(#SVGID_4_)"
   fill="#1d1d1b"
   d="m 472.613,330.988 c -5.955,0 -9.859,3.514 -9.859,8.883 v 16.106 c 0,5.368 3.904,8.883 9.859,8.883 5.906,0 9.761,-3.515 9.761,-8.883 v -16.106 c 0,-5.369 -3.855,-8.883 -9.761,-8.883 m 4.002,24.843 c 0,2.245 -1.61,3.709 -4.002,3.709 -2.441,0 -4.052,-1.415 -4.052,-3.709 v -15.812 c 0,-2.295 1.611,-3.709 4.052,-3.709 2.392,0 4.002,1.463 4.002,3.709 z"
   id="path116"
   style="stroke-width:1.0012" />
	<path
   clip-path="url(#SVGID_4_)"
   fill="#1d1d1b"
   d="m 499.988,349.389 c 2.294,-3.222 3.709,-6.492 3.709,-9.713 0,-5.32 -3.66,-8.688 -9.126,-8.688 -5.565,0 -9.225,3.367 -9.225,8.395 v 2.685 h 3.368 c 1.32,0 2.391,-1.07 2.391,-2.392 0,-2.001 1.318,-3.367 3.416,-3.367 2.05,0 3.369,1.269 3.369,3.611 0,1.903 -0.928,4.051 -3.515,7.662 l -8.98,12.495 v 4.197 h 18.204 v -5.173 h -10.444 v -0.293 z"
   id="path118"
   style="stroke-width:1.0012" />
	<polygon
   clip-path="url(#SVGID_4_)"
   fill="#1d1d1b"
   points="510.868,337.724 511.307,337.724 511.307,364.274 517.065,364.274 517.065,331.574 512.526,331.574 506.23,334.941 506.23,340.407 "
   id="polygon120"
   style="stroke-width:1.0012" />
	<rect
   x="520.76001"
   y="345.55801"
   clip-path="url(#SVGID_4_)"
   fill="#1d1d1b"
   width="11.08"
   height="5.1240001"
   id="rect122"
   style="stroke-width:1.0012" />
	<path
   clip-path="url(#SVGID_4_)"
   fill="#1d1d1b"
   d="m 548.125,349.389 c 2.295,-3.222 3.709,-6.492 3.709,-9.713 0,-5.32 -3.659,-8.688 -9.126,-8.688 -5.563,0 -9.225,3.367 -9.225,8.395 v 2.685 h 3.368 c 1.32,0 2.391,-1.07 2.391,-2.392 0,-2.001 1.318,-3.367 3.417,-3.367 2.05,0 3.368,1.269 3.368,3.611 0,1.903 -0.928,4.051 -3.514,7.662 l -8.981,12.495 v 4.197 h 18.204 v -5.173 h -10.443 v -0.293 z"
   id="path124"
   style="stroke-width:1.0012" />
	<path
   clip-path="url(#SVGID_4_)"
   fill="#1d1d1b"
   d="m 564.598,330.988 c -5.955,0 -9.859,3.514 -9.859,8.883 v 16.106 c 0,5.368 3.904,8.883 9.859,8.883 5.905,0 9.761,-3.515 9.761,-8.883 v -16.106 c -0.001,-5.369 -3.856,-8.883 -9.761,-8.883 m 4.002,24.843 c 0,2.245 -1.611,3.709 -4.002,3.709 -2.441,0 -4.052,-1.415 -4.052,-3.709 v -15.812 c 0,-2.295 1.61,-3.709 4.052,-3.709 2.391,0 4.002,1.463 4.002,3.709 z"
   id="path126"
   style="stroke-width:1.0012" />
	<path
   clip-path="url(#SVGID_4_)"
   fill="#1d1d1b"
   d="m 591.787,347.582 v -0.341 c 2.489,-1.025 4.198,-4.051 4.198,-7.663 0,-5.125 -3.71,-8.59 -9.176,-8.59 -5.467,0 -9.176,3.367 -9.176,8.492 v 1.708 h 3.951 c 0.979,0 1.757,-0.777 1.826,-1.755 0,-0.002 0,-0.003 0,-0.005 0.167,-1.936 1.44,-3.12 3.35,-3.12 2.001,0 3.319,1.366 3.319,4.099 0,3.076 -1.465,4.931 -3.954,4.931 h -3.709 v 4.686 h 4.245 c 2.441,0 3.905,1.854 3.905,4.929 0,3.025 -1.562,4.588 -3.855,4.588 -2.293,0 -3.759,-1.513 -3.759,-3.904 v -1.269 h -5.759 v 1.659 c 0,5.271 3.808,8.834 9.566,8.834 5.758,0 9.615,-3.66 9.615,-9.078 0.002,-3.954 -1.805,-7.176 -4.587,-8.201"
   id="path128"
   style="stroke-width:1.0012" />
	<path
   clip-path="url(#SVGID_4_)"
   fill="#1d1d1b"
   d="m 609.046,330.988 c -5.955,0 -9.859,3.514 -9.859,8.883 v 16.106 c 0,5.368 3.904,8.883 9.859,8.883 5.906,0 9.761,-3.515 9.761,-8.883 v -16.106 c 0,-5.369 -3.855,-8.883 -9.761,-8.883 m 4.002,24.843 c 0,2.245 -1.61,3.709 -4.002,3.709 -2.441,0 -4.052,-1.415 -4.052,-3.709 v -15.812 c 0,-2.295 1.61,-3.709 4.052,-3.709 2.392,0 4.002,1.463 4.002,3.709 z"
   id="path130"
   style="stroke-width:1.0012" />
</g></g>
</svg>
