<svg width="1026" height="201" viewBox="0 0 1026 201" fill="none" xmlns="http://www.w3.org/2000/svg">
<path fill-rule="evenodd" clip-rule="evenodd" d="M1026 50C1026 22.3858 1003.61 0 976 0H50C22.3857 0 0 22.3858 0 50V151C0 178.614 22.3857 201 50 201H976C1003.61 201 1026 178.614 1026 151V50Z" fill="#F1F8F6"/>
<path fill-rule="evenodd" clip-rule="evenodd" d="M1026 50C1026 22.3858 1003.61 0 976 0H50C22.3857 0 0 22.3858 0 50V151C0 178.614 22.3857 201 50 201H976C1003.61 201 1026 178.614 1026 151V50Z" fill="#E0EEEA"/>
<mask id="mask0" mask-type="alpha" maskUnits="userSpaceOnUse" x="0" y="0" width="1026" height="201">
<path fill-rule="evenodd" clip-rule="evenodd" d="M1026 50C1026 22.3858 1003.61 0 976 0H50C22.3857 0 0 22.3858 0 50V151C0 178.614 22.3857 201 50 201H976C1003.61 201 1026 178.614 1026 151V50Z" fill="white"/>
</mask>
<g mask="url(#mask0)">
<path fill-rule="evenodd" clip-rule="evenodd" d="M662.618 69.2616C644.332 87.6308 631.792 126.581 631.792 126.581C619.656 106.896 594.931 82.2029 594.931 82.2029C599.112 100.674 627.998 137.007 627.998 137.007C629.814 149.475 616.611 168.291 616.611 168.291C616.611 168.291 555.047 145.883 522.049 81.2639C489.051 16.6447 548.247 -67.2993 548.247 -67.2993C645.997 -21.4592 662.618 69.2616 662.618 69.2616ZM712.376 46.4965C648.716 74.9353 623.799 179.973 623.799 179.973C666.01 131.065 716.46 118.369 716.46 118.369C645.394 162.89 643.479 192.968 643.479 192.968C783.65 206.13 869.104 57.4689 869.104 57.4689C869.104 57.4689 776.036 18.0577 712.376 46.4965Z" fill="#D6E6E1"/>
</g>
</svg>
